<mxfile host="Electron" agent="Mozilla/5.0 (Windows NT 10.0; Win64; x64) AppleWebKit/537.36 (KHTML, like Gecko) draw.io/27.0.9 Chrome/134.0.6998.205 Electron/35.4.0 Safari/537.36" version="27.0.9">
  <diagram id="C5RBs43oDa-KdzZeNtuy" name="Page-1">
    <mxGraphModel dx="1426" dy="849" grid="1" gridSize="10" guides="1" tooltips="1" connect="1" arrows="1" fold="1" page="1" pageScale="1" pageWidth="827" pageHeight="1169" math="0" shadow="0">
      <root>
        <mxCell id="WIyWlLk6GJQsqaUBKTNV-0" />
        <mxCell id="WIyWlLk6GJQsqaUBKTNV-1" parent="WIyWlLk6GJQsqaUBKTNV-0" />
        <mxCell id="WIyWlLk6GJQsqaUBKTNV-2" value="" style="rounded=0;html=1;jettySize=auto;orthogonalLoop=1;fontSize=11;endArrow=block;endFill=0;endSize=8;strokeWidth=1;shadow=0;labelBackgroundColor=none;edgeStyle=orthogonalEdgeStyle;" parent="WIyWlLk6GJQsqaUBKTNV-1" source="WIyWlLk6GJQsqaUBKTNV-3" target="WIyWlLk6GJQsqaUBKTNV-6" edge="1">
          <mxGeometry relative="1" as="geometry" />
        </mxCell>
        <mxCell id="WIyWlLk6GJQsqaUBKTNV-3" value="handleClickNumbers" style="rounded=1;whiteSpace=wrap;html=1;fontSize=12;glass=0;strokeWidth=1;shadow=0;fillColor=#ffe6cc;strokeColor=#d79b00;" parent="WIyWlLk6GJQsqaUBKTNV-1" vertex="1">
          <mxGeometry x="120" y="550" width="120" height="40" as="geometry" />
        </mxCell>
        <mxCell id="WIyWlLk6GJQsqaUBKTNV-4" value="Sim" style="rounded=0;html=1;jettySize=auto;orthogonalLoop=1;fontSize=11;endArrow=block;endFill=0;endSize=8;strokeWidth=1;shadow=0;labelBackgroundColor=none;edgeStyle=orthogonalEdgeStyle;" parent="WIyWlLk6GJQsqaUBKTNV-1" source="WIyWlLk6GJQsqaUBKTNV-6" target="WIyWlLk6GJQsqaUBKTNV-10" edge="1">
          <mxGeometry y="20" relative="1" as="geometry">
            <mxPoint as="offset" />
          </mxGeometry>
        </mxCell>
        <mxCell id="WIyWlLk6GJQsqaUBKTNV-5" value="Não" style="edgeStyle=orthogonalEdgeStyle;rounded=0;html=1;jettySize=auto;orthogonalLoop=1;fontSize=11;endArrow=block;endFill=0;endSize=8;strokeWidth=1;shadow=0;labelBackgroundColor=none;entryX=0;entryY=0.5;entryDx=0;entryDy=0;" parent="WIyWlLk6GJQsqaUBKTNV-1" source="WIyWlLk6GJQsqaUBKTNV-6" target="Y2pXn3VhWh6g7W9xuSVb-6" edge="1">
          <mxGeometry x="0.2" y="15" relative="1" as="geometry">
            <mxPoint as="offset" />
            <mxPoint x="280" y="680" as="targetPoint" />
          </mxGeometry>
        </mxCell>
        <mxCell id="WIyWlLk6GJQsqaUBKTNV-6" value="&lt;b&gt;há n1?&lt;/b&gt;" style="rhombus;whiteSpace=wrap;html=1;shadow=0;fontFamily=Helvetica;fontSize=12;align=center;strokeWidth=1;spacing=6;spacingTop=-4;fillColor=#fff2cc;strokeColor=#d6b656;" parent="WIyWlLk6GJQsqaUBKTNV-1" vertex="1">
          <mxGeometry x="130" y="640" width="100" height="90" as="geometry" />
        </mxCell>
        <mxCell id="WIyWlLk6GJQsqaUBKTNV-8" value="E" style="rounded=0;html=1;jettySize=auto;orthogonalLoop=1;fontSize=11;endArrow=block;endFill=0;endSize=8;strokeWidth=1;shadow=0;labelBackgroundColor=none;edgeStyle=orthogonalEdgeStyle;" parent="WIyWlLk6GJQsqaUBKTNV-1" source="WIyWlLk6GJQsqaUBKTNV-10" target="WIyWlLk6GJQsqaUBKTNV-11" edge="1">
          <mxGeometry x="0.3333" y="20" relative="1" as="geometry">
            <mxPoint as="offset" />
          </mxGeometry>
        </mxCell>
        <mxCell id="Y2pXn3VhWh6g7W9xuSVb-12" style="edgeStyle=orthogonalEdgeStyle;rounded=0;orthogonalLoop=1;jettySize=auto;html=1;exitX=0;exitY=0.5;exitDx=0;exitDy=0;entryX=0.5;entryY=0;entryDx=0;entryDy=0;" edge="1" parent="WIyWlLk6GJQsqaUBKTNV-1" source="WIyWlLk6GJQsqaUBKTNV-10" target="Y2pXn3VhWh6g7W9xuSVb-10">
          <mxGeometry relative="1" as="geometry">
            <Array as="points">
              <mxPoint x="40" y="885" />
              <mxPoint x="40" y="520" />
              <mxPoint x="425" y="520" />
            </Array>
          </mxGeometry>
        </mxCell>
        <mxCell id="WIyWlLk6GJQsqaUBKTNV-10" value="&lt;div style=&quot;line-height: 19px; white-space: pre;&quot;&gt;&lt;font face=&quot;Helvetica&quot; style=&quot;font-size: 11px;&quot;&gt;n2:&lt;/font&gt;&lt;/div&gt;&lt;div style=&quot;line-height: 19px; white-space: pre;&quot;&gt;&lt;font face=&quot;Helvetica&quot; style=&quot;font-size: 11px;&quot;&gt;display.value =&lt;/font&gt;&lt;/div&gt;&lt;div style=&quot;line-height: 19px; white-space: pre;&quot;&gt;&lt;font face=&quot;Helvetica&quot; style=&quot;font-size: 11px;&quot;&gt;this.value &lt;/font&gt;&lt;/div&gt;" style="rhombus;whiteSpace=wrap;html=1;shadow=0;fontFamily=Helvetica;fontSize=12;align=center;strokeWidth=1;spacing=6;spacingTop=-4;fillColor=#fff2cc;strokeColor=#d6b656;" parent="WIyWlLk6GJQsqaUBKTNV-1" vertex="1">
          <mxGeometry x="130" y="840" width="100" height="90" as="geometry" />
        </mxCell>
        <mxCell id="WIyWlLk6GJQsqaUBKTNV-11" value="&lt;div style=&quot;font-family: Consolas, &amp;quot;Courier New&amp;quot;, monospace; line-height: 19px; white-space: pre;&quot;&gt;&lt;span&gt;&lt;font style=&quot;color: rgb(0, 0, 0);&quot;&gt;&lt;b&gt;n1Iexists killswitch&lt;/b&gt; =&amp;gt; volta a &lt;i&gt;false&lt;/i&gt;&lt;/font&gt;&lt;/span&gt;&lt;/div&gt;&lt;div style=&quot;font-family: Consolas, &amp;quot;Courier New&amp;quot;, monospace; line-height: 19px; white-space: pre;&quot;&gt;&lt;span&gt;&lt;font style=&quot;color: rgb(0, 0, 0);&quot;&gt;para poder ter o mesmo comportamento de como se&lt;/font&gt;&lt;/span&gt;&lt;/div&gt;&lt;div style=&quot;line-height: 19px;&quot;&gt;&lt;span style=&quot;font-family: Consolas, &amp;quot;Courier New&amp;quot;, monospace; white-space: pre;&quot;&gt;&lt;font style=&quot;color: rgb(0, 0, 0);&quot;&gt;estivesse a colocar o n1. &lt;/font&gt;&lt;/span&gt;&lt;span style=&quot;background-color: transparent; white-space: pre;&quot;&gt;&lt;font face=&quot;Consolas, Courier New, monospace&quot;&gt;só assim permite&lt;/font&gt;&lt;/span&gt;&lt;/div&gt;&lt;div style=&quot;line-height: 19px;&quot;&gt;&lt;span style=&quot;background-color: transparent; white-space: pre;&quot;&gt;&lt;font face=&quot;Consolas, Courier New, monospace&quot;&gt;concatenar &lt;/font&gt;&lt;/span&gt;&lt;span style=&quot;font-family: Consolas, &amp;quot;Courier New&amp;quot;, monospace; background-color: transparent; white-space: pre; color: light-dark(rgb(0, 0, 0), rgb(255, 255, 255));&quot;&gt;o segundo número&lt;/span&gt;&lt;/div&gt;" style="rounded=1;whiteSpace=wrap;html=1;fontSize=12;glass=0;strokeWidth=1;shadow=0;fillColor=#d5e8d4;strokeColor=#82b366;" parent="WIyWlLk6GJQsqaUBKTNV-1" vertex="1">
          <mxGeometry x="10" y="980" width="340" height="120" as="geometry" />
        </mxCell>
        <mxCell id="Y2pXn3VhWh6g7W9xuSVb-0" value="&lt;blockquote style=&quot;margin: 0 0 0 40px; border: none; padding: 0px;&quot;&gt;&lt;b&gt;Definir DOM objects:&lt;/b&gt;&lt;div&gt;&lt;i&gt;numbers&lt;/i&gt;&lt;/div&gt;&lt;div&gt;&lt;i&gt;display&lt;/i&gt;&lt;/div&gt;&lt;div&gt;&lt;i&gt;operators&lt;/i&gt;&lt;/div&gt;&lt;div&gt;&lt;i&gt;result&lt;/i&gt;&lt;/div&gt;&lt;/blockquote&gt;" style="rounded=1;whiteSpace=wrap;html=1;fontSize=12;glass=0;strokeWidth=1;shadow=0;align=left;fillColor=#dae8fc;strokeColor=#6c8ebf;" vertex="1" parent="WIyWlLk6GJQsqaUBKTNV-1">
          <mxGeometry x="140" y="50" width="300" height="160" as="geometry" />
        </mxCell>
        <mxCell id="Y2pXn3VhWh6g7W9xuSVb-1" value="&lt;blockquote style=&quot;margin: 0 0 0 40px; border: none; padding: 0px;&quot;&gt;&lt;b&gt;Definir constantes/variáveis + flags:&lt;/b&gt;&lt;div&gt;&lt;i&gt;n1 = o 1º número a sair do cálculo&lt;/i&gt;&lt;/div&gt;&lt;div&gt;&lt;i&gt;n2 =&amp;nbsp;&lt;/i&gt;&lt;i style=&quot;background-color: transparent; color: light-dark(rgb(0, 0, 0), rgb(255, 255, 255));&quot;&gt;o 2º número a sair do cálculo&lt;/i&gt;&lt;/div&gt;&lt;div&gt;&lt;i&gt;operatorSymb = os símbolos na UI operatorFunc = os símbolos matemáticos&lt;/i&gt;&lt;/div&gt;&lt;div&gt;&lt;i&gt;&lt;br&gt;&lt;/i&gt;&lt;/div&gt;&lt;div&gt;&lt;i&gt;&lt;font style=&quot;color: rgb(230, 60, 60);&quot;&gt;flag &lt;/font&gt;&lt;font style=&quot;color: rgb(0, 0, 0);&quot;&gt;n1exists = mecanismo para o código perceber se já há um primeiro número em cache ou não&lt;/font&gt;&lt;/i&gt;&lt;/div&gt;&lt;/blockquote&gt;" style="rounded=1;whiteSpace=wrap;html=1;fontSize=12;glass=0;strokeWidth=1;shadow=0;align=left;fillColor=#dae8fc;strokeColor=#6c8ebf;" vertex="1" parent="WIyWlLk6GJQsqaUBKTNV-1">
          <mxGeometry x="470" y="50" width="290" height="160" as="geometry" />
        </mxCell>
        <mxCell id="Y2pXn3VhWh6g7W9xuSVb-2" value="Acrescentar os addEventListener&lt;div&gt;em blocos (com método forEach ou for loop):&lt;/div&gt;&lt;div style=&quot;text-align: left;&quot;&gt;&lt;br&gt;&lt;/div&gt;&lt;div&gt;&lt;div style=&quot;text-align: left;&quot;&gt;&lt;font style=&quot;font-size: 13px;&quot; face=&quot;Courier New&quot;&gt;numbers.forEach((i) =&amp;gt; {&lt;/font&gt;&lt;/div&gt;&lt;div style=&quot;text-align: left;&quot;&gt;&lt;font style=&quot;font-size: 13px;&quot; face=&quot;Courier New&quot;&gt;&amp;nbsp; i.addEventListener(&#39;click&#39;, handleClickNumbers)&lt;/font&gt;&lt;/div&gt;&lt;div style=&quot;text-align: left;&quot;&gt;&lt;font style=&quot;font-size: 13px;&quot; face=&quot;Courier New&quot;&gt;})&lt;/font&gt;&lt;/div&gt;&lt;div style=&quot;text-align: left;&quot;&gt;&lt;font style=&quot;font-size: 13px;&quot; face=&quot;Courier New&quot;&gt;&lt;br&gt;&lt;/font&gt;&lt;/div&gt;&lt;div style=&quot;text-align: left;&quot;&gt;&lt;font style=&quot;font-size: 13px;&quot; face=&quot;Courier New&quot;&gt;operators.forEach((i) =&amp;gt; {&lt;/font&gt;&lt;/div&gt;&lt;div style=&quot;text-align: left;&quot;&gt;&lt;font style=&quot;font-size: 13px;&quot; face=&quot;Courier New&quot;&gt;&amp;nbsp; i.addEventListener(&#39;click&#39;, handleClickOperators)&lt;/font&gt;&lt;/div&gt;&lt;div style=&quot;text-align: left;&quot;&gt;&lt;font style=&quot;font-size: 13px;&quot; face=&quot;Courier New&quot;&gt;})&lt;/font&gt;&lt;/div&gt;&lt;div style=&quot;text-align: left;&quot;&gt;&lt;font style=&quot;font-size: 13px;&quot; face=&quot;Courier New&quot;&gt;&lt;br&gt;&lt;/font&gt;&lt;/div&gt;&lt;div style=&quot;text-align: left;&quot;&gt;&lt;font style=&quot;font-size: 13px;&quot; face=&quot;Courier New&quot;&gt;result.addEventListener(&#39;click&#39;, handleClickEqual)&lt;/font&gt;&lt;/div&gt;&lt;/div&gt;&lt;div&gt;&lt;br&gt;&lt;/div&gt;" style="rounded=1;whiteSpace=wrap;html=1;fontSize=12;glass=0;strokeWidth=1;shadow=0;fillColor=#fff2cc;strokeColor=#d6b656;" vertex="1" parent="WIyWlLk6GJQsqaUBKTNV-1">
          <mxGeometry x="210" y="240" width="450" height="250" as="geometry" />
        </mxCell>
        <mxCell id="Y2pXn3VhWh6g7W9xuSVb-8" style="edgeStyle=orthogonalEdgeStyle;rounded=0;orthogonalLoop=1;jettySize=auto;html=1;exitX=1;exitY=0;exitDx=0;exitDy=0;" edge="1" parent="WIyWlLk6GJQsqaUBKTNV-1" source="Y2pXn3VhWh6g7W9xuSVb-6">
          <mxGeometry relative="1" as="geometry">
            <mxPoint x="400" y="620" as="targetPoint" />
          </mxGeometry>
        </mxCell>
        <mxCell id="Y2pXn3VhWh6g7W9xuSVb-9" style="edgeStyle=orthogonalEdgeStyle;rounded=0;orthogonalLoop=1;jettySize=auto;html=1;exitX=1;exitY=1;exitDx=0;exitDy=0;" edge="1" parent="WIyWlLk6GJQsqaUBKTNV-1" source="Y2pXn3VhWh6g7W9xuSVb-6">
          <mxGeometry relative="1" as="geometry">
            <mxPoint x="400" y="740" as="targetPoint" />
          </mxGeometry>
        </mxCell>
        <mxCell id="Y2pXn3VhWh6g7W9xuSVb-6" value="&lt;b&gt;&lt;font style=&quot;font-size: 9px;&quot;&gt;display&lt;/font&gt;&lt;/b&gt;&lt;div&gt;&lt;b&gt;&lt;font style=&quot;font-size: 9px;&quot;&gt;value é 0?&lt;/font&gt;&lt;/b&gt;&lt;/div&gt;" style="rhombus;whiteSpace=wrap;html=1;shadow=0;fontFamily=Helvetica;fontSize=12;align=center;strokeWidth=1;spacing=6;spacingTop=-4;fillColor=#f5f5f5;fontColor=#333333;strokeColor=#666666;" vertex="1" parent="WIyWlLk6GJQsqaUBKTNV-1">
          <mxGeometry x="280" y="640" width="90" height="90" as="geometry" />
        </mxCell>
        <mxCell id="Y2pXn3VhWh6g7W9xuSVb-10" value="display.value = this.value" style="rounded=1;whiteSpace=wrap;html=1;fillColor=#f5f5f5;fontColor=#333333;strokeColor=#666666;" vertex="1" parent="WIyWlLk6GJQsqaUBKTNV-1">
          <mxGeometry x="340" y="580" width="170" height="40" as="geometry" />
        </mxCell>
        <mxCell id="Y2pXn3VhWh6g7W9xuSVb-11" value="&lt;font style=&quot;font-size: 11px;&quot;&gt;display.value += this.value //&amp;nbsp;&lt;span style=&quot;background-color: rgb(31, 31, 31); font-family: Consolas, &amp;quot;Courier New&amp;quot;, monospace; white-space: pre;&quot;&gt;&lt;font style=&quot;color: rgb(43, 233, 35);&quot;&gt;concat com o valor que já lá está&lt;/font&gt;&lt;/span&gt;&lt;/font&gt;" style="rounded=1;whiteSpace=wrap;html=1;fillColor=#f5f5f5;fontColor=#333333;strokeColor=#666666;" vertex="1" parent="WIyWlLk6GJQsqaUBKTNV-1">
          <mxGeometry x="340" y="740" width="360" height="40" as="geometry" />
        </mxCell>
        <mxCell id="Y2pXn3VhWh6g7W9xuSVb-15" style="edgeStyle=orthogonalEdgeStyle;rounded=0;orthogonalLoop=1;jettySize=auto;html=1;exitX=0.5;exitY=1;exitDx=0;exitDy=0;entryX=0.5;entryY=0;entryDx=0;entryDy=0;" edge="1" parent="WIyWlLk6GJQsqaUBKTNV-1" source="Y2pXn3VhWh6g7W9xuSVb-13" target="Y2pXn3VhWh6g7W9xuSVb-14">
          <mxGeometry relative="1" as="geometry" />
        </mxCell>
        <mxCell id="Y2pXn3VhWh6g7W9xuSVb-13" value="handleClickOperators" style="rounded=1;whiteSpace=wrap;html=1;fontSize=12;glass=0;strokeWidth=1;shadow=0;fillColor=#ffe6cc;strokeColor=#d79b00;" vertex="1" parent="WIyWlLk6GJQsqaUBKTNV-1">
          <mxGeometry x="550" y="890" width="160" height="50" as="geometry" />
        </mxCell>
        <mxCell id="Y2pXn3VhWh6g7W9xuSVb-16" style="edgeStyle=orthogonalEdgeStyle;rounded=0;orthogonalLoop=1;jettySize=auto;html=1;exitX=0.5;exitY=1;exitDx=0;exitDy=0;" edge="1" parent="WIyWlLk6GJQsqaUBKTNV-1" source="Y2pXn3VhWh6g7W9xuSVb-14">
          <mxGeometry relative="1" as="geometry">
            <mxPoint x="630" y="1200" as="targetPoint" />
          </mxGeometry>
        </mxCell>
        <mxCell id="Y2pXn3VhWh6g7W9xuSVb-14" value="forEach para&lt;div&gt;mudar a cor dos&lt;/div&gt;&lt;div&gt;&amp;nbsp;operadores&lt;/div&gt;&lt;div&gt;selecionados&lt;/div&gt;" style="rhombus;whiteSpace=wrap;html=1;" vertex="1" parent="WIyWlLk6GJQsqaUBKTNV-1">
          <mxGeometry x="550" y="1000" width="160" height="150" as="geometry" />
        </mxCell>
        <mxCell id="Y2pXn3VhWh6g7W9xuSVb-21" style="edgeStyle=orthogonalEdgeStyle;rounded=0;orthogonalLoop=1;jettySize=auto;html=1;exitX=0.5;exitY=1;exitDx=0;exitDy=0;entryX=0.5;entryY=0;entryDx=0;entryDy=0;" edge="1" parent="WIyWlLk6GJQsqaUBKTNV-1" source="Y2pXn3VhWh6g7W9xuSVb-19" target="Y2pXn3VhWh6g7W9xuSVb-20">
          <mxGeometry relative="1" as="geometry" />
        </mxCell>
        <mxCell id="Y2pXn3VhWh6g7W9xuSVb-19" value="escolher o operador e atribuir-lhe uma função&lt;div&gt;&lt;br&gt;&lt;/div&gt;&lt;div&gt;&lt;div style=&quot;color: rgb(204, 204, 204); background-color: rgb(31, 31, 31); font-family: Consolas, &amp;quot;Courier New&amp;quot;, monospace; line-height: 19px; white-space: pre;&quot;&gt;&lt;div&gt;&lt;span style=&quot;font-size: 14px;&quot;&gt;&amp;nbsp; &lt;/span&gt;&lt;font style=&quot;font-size: 10px;&quot;&gt;&lt;span style=&quot;color: rgb(156, 220, 254);&quot;&gt;operatorFunc&lt;/span&gt; &lt;span style=&quot;color: rgb(212, 212, 212);&quot;&gt;=&lt;/span&gt; &lt;span style=&quot;color: rgb(156, 220, 254);&quot;&gt;operatorSymb&lt;/span&gt; &lt;span style=&quot;color: rgb(212, 212, 212);&quot;&gt;===&lt;/span&gt; &lt;span style=&quot;color: rgb(206, 145, 120);&quot;&gt;&#39;+&#39;&lt;/span&gt; &lt;span style=&quot;color: rgb(212, 212, 212);&quot;&gt;?&lt;/span&gt; &lt;span style=&quot;color: rgb(220, 220, 170);&quot;&gt;add&lt;/span&gt; &lt;span style=&quot;color: rgb(212, 212, 212);&quot;&gt;:&lt;/span&gt;&lt;/font&gt;&lt;/div&gt;&lt;div&gt;&lt;font style=&quot;font-size: 10px;&quot;&gt;&lt;span style=&quot;color: rgb(156, 220, 254);&quot;&gt;&lt;span style=&quot;white-space: pre;&quot;&gt;&#x9;&lt;/span&gt;&lt;span style=&quot;white-space: pre;&quot;&gt;&#x9;&lt;/span&gt;       operatorSymb&lt;/span&gt; &lt;span style=&quot;color: rgb(212, 212, 212);&quot;&gt;===&lt;/span&gt; &lt;span style=&quot;color: rgb(206, 145, 120);&quot;&gt;&#39;-&#39;&lt;/span&gt; &lt;span style=&quot;color: rgb(212, 212, 212);&quot;&gt;?&lt;/span&gt; &lt;span style=&quot;color: rgb(220, 220, 170);&quot;&gt;subtract&lt;/span&gt; &lt;span style=&quot;color: rgb(212, 212, 212);&quot;&gt;:&lt;/span&gt;&lt;/font&gt;&lt;/div&gt;&lt;div&gt;&lt;font style=&quot;font-size: 10px;&quot;&gt; &lt;span style=&quot;white-space: pre;&quot;&gt;&#x9;&lt;/span&gt;&lt;span style=&quot;white-space: pre;&quot;&gt;&#x9;&lt;/span&gt;&lt;span style=&quot;white-space: pre;&quot;&gt;&#x9;&lt;/span&gt;       &lt;span style=&quot;color: rgb(156, 220, 254);&quot;&gt;operatorSymb&lt;/span&gt; &lt;span style=&quot;color: rgb(212, 212, 212);&quot;&gt;===&lt;/span&gt; &lt;span style=&quot;color: rgb(206, 145, 120);&quot;&gt;&#39;*&#39;&lt;/span&gt; &lt;span style=&quot;color: rgb(212, 212, 212);&quot;&gt;?&lt;/span&gt; &lt;span style=&quot;color: rgb(220, 220, 170);&quot;&gt;multiply&lt;/span&gt; &lt;span style=&quot;color: rgb(212, 212, 212);&quot;&gt;:&lt;/span&gt; &lt;span style=&quot;color: rgb(220, 220, 170);&quot;&gt;divide &lt;/span&gt;&lt;/font&gt;&lt;/div&gt;&lt;/div&gt;&lt;/div&gt;" style="rounded=1;whiteSpace=wrap;html=1;fillColor=#dae8fc;strokeColor=#6c8ebf;" vertex="1" parent="WIyWlLk6GJQsqaUBKTNV-1">
          <mxGeometry x="410" y="1200" width="436" height="130" as="geometry" />
        </mxCell>
        <mxCell id="Y2pXn3VhWh6g7W9xuSVb-20" value="&lt;div style=&quot;background-color: rgb(31, 31, 31); font-family: Consolas, &amp;quot;Courier New&amp;quot;, monospace; line-height: 19px; white-space: pre;&quot;&gt;&lt;font style=&quot;&quot;&gt;&lt;span&gt;&lt;div style=&quot;line-height: 19px;&quot;&gt;&lt;div style=&quot;&quot;&gt;&lt;font style=&quot;font-size: 10px;&quot;&gt;&lt;div style=&quot;color: rgb(204, 204, 204);&quot;&gt;&amp;nbsp; gravar o display.value na variável n1&lt;/div&gt;&lt;div style=&quot;&quot;&gt;&lt;font color=&quot;#cccccc&quot;&gt;como &lt;/font&gt;&lt;font style=&quot;color: rgb(43, 233, 35);&quot;&gt;number &lt;/font&gt;&lt;font color=&quot;#cccccc&quot;&gt;e ligar o switch &quot;&lt;/font&gt;&lt;font style=&quot;color: rgb(42, 191, 255);&quot;&gt;n1exists&lt;/font&gt;&lt;font color=&quot;#cccccc&quot;&gt;&quot;&lt;/font&gt;&lt;/div&gt;&lt;div style=&quot;color: rgb(204, 204, 204);&quot;&gt;&lt;span style=&quot;color: rgb(156, 220, 254);&quot;&gt;&lt;br&gt;&lt;/span&gt;&lt;/div&gt;&lt;div style=&quot;color: rgb(204, 204, 204);&quot;&gt;&lt;span style=&quot;color: rgb(156, 220, 254);&quot;&gt;  n1&lt;/span&gt; &lt;span style=&quot;color: rgb(212, 212, 212);&quot;&gt;=&lt;/span&gt; &lt;span style=&quot;color: rgb(220, 220, 170);&quot;&gt;parseFloat&lt;/span&gt;(&lt;span style=&quot;color: rgb(79, 193, 255);&quot;&gt;display&lt;/span&gt;.&lt;span style=&quot;color: rgb(156, 220, 254);&quot;&gt;value&lt;/span&gt;)  &lt;/div&gt;&lt;/font&gt;&lt;/div&gt;&lt;div style=&quot;color: rgb(204, 204, 204);&quot;&gt;&lt;span style=&quot;font-size: 10px; color: rgb(156, 220, 254);&quot;&gt;n1IsAlreadyThere&lt;/span&gt;&lt;span style=&quot;font-size: 10px;&quot;&gt; &lt;/span&gt;&lt;span style=&quot;font-size: 10px; color: rgb(212, 212, 212);&quot;&gt;=&lt;/span&gt;&lt;span style=&quot;font-size: 10px;&quot;&gt; &lt;/span&gt;&lt;span style=&quot;font-size: 10px; color: rgb(86, 156, 214);&quot;&gt;true&lt;/span&gt;&lt;span style=&quot;font-size: 10px; color: rgb(220, 220, 170);&quot;&gt; &lt;/span&gt;&lt;/div&gt;&lt;/div&gt;&lt;/span&gt;&lt;/font&gt;&lt;/div&gt;" style="rounded=1;whiteSpace=wrap;html=1;fillColor=#dae8fc;strokeColor=#6c8ebf;" vertex="1" parent="WIyWlLk6GJQsqaUBKTNV-1">
          <mxGeometry x="410" y="1370" width="436" height="130" as="geometry" />
        </mxCell>
        <mxCell id="Y2pXn3VhWh6g7W9xuSVb-24" style="edgeStyle=orthogonalEdgeStyle;rounded=0;orthogonalLoop=1;jettySize=auto;html=1;entryX=0.5;entryY=0;entryDx=0;entryDy=0;" edge="1" parent="WIyWlLk6GJQsqaUBKTNV-1" source="Y2pXn3VhWh6g7W9xuSVb-22" target="Y2pXn3VhWh6g7W9xuSVb-23">
          <mxGeometry relative="1" as="geometry" />
        </mxCell>
        <mxCell id="Y2pXn3VhWh6g7W9xuSVb-22" value="handleClickEqual" style="rounded=1;whiteSpace=wrap;html=1;fontSize=12;glass=0;strokeWidth=1;shadow=0;fillColor=#ffe6cc;strokeColor=#d79b00;" vertex="1" parent="WIyWlLk6GJQsqaUBKTNV-1">
          <mxGeometry x="120" y="1240" width="160" height="50" as="geometry" />
        </mxCell>
        <mxCell id="Y2pXn3VhWh6g7W9xuSVb-26" style="edgeStyle=orthogonalEdgeStyle;rounded=0;orthogonalLoop=1;jettySize=auto;html=1;entryX=0.5;entryY=0;entryDx=0;entryDy=0;" edge="1" parent="WIyWlLk6GJQsqaUBKTNV-1" source="Y2pXn3VhWh6g7W9xuSVb-23" target="Y2pXn3VhWh6g7W9xuSVb-25">
          <mxGeometry relative="1" as="geometry" />
        </mxCell>
        <mxCell id="Y2pXn3VhWh6g7W9xuSVb-23" value="Tratar o edge case primeiro" style="rounded=1;whiteSpace=wrap;html=1;" vertex="1" parent="WIyWlLk6GJQsqaUBKTNV-1">
          <mxGeometry x="140" y="1320" width="120" height="60" as="geometry" />
        </mxCell>
        <mxCell id="Y2pXn3VhWh6g7W9xuSVb-28" style="edgeStyle=orthogonalEdgeStyle;rounded=0;orthogonalLoop=1;jettySize=auto;html=1;" edge="1" parent="WIyWlLk6GJQsqaUBKTNV-1" source="Y2pXn3VhWh6g7W9xuSVb-25" target="Y2pXn3VhWh6g7W9xuSVb-27">
          <mxGeometry relative="1" as="geometry" />
        </mxCell>
        <mxCell id="Y2pXn3VhWh6g7W9xuSVb-25" value="registar o n2 (é o número que tiver na altura do click em = no display)&lt;div&gt;&lt;br&gt;&lt;/div&gt;&lt;div&gt;&lt;div style=&quot;color: rgb(204, 204, 204); background-color: rgb(31, 31, 31); font-family: Consolas, &amp;quot;Courier New&amp;quot;, monospace; line-height: 19px; white-space: pre;&quot;&gt;&lt;div style=&quot;&quot;&gt;&lt;font style=&quot;font-size: 9px;&quot;&gt;&amp;nbsp; &lt;span style=&quot;color: rgb(156, 220, 254);&quot;&gt;n2&lt;/span&gt; &lt;span style=&quot;color: rgb(212, 212, 212);&quot;&gt;=&lt;/span&gt; &lt;span style=&quot;color: rgb(220, 220, 170);&quot;&gt;parseFloat&lt;/span&gt;(&lt;span style=&quot;color: rgb(79, 193, 255);&quot;&gt;display&lt;/span&gt;.&lt;span style=&quot;color: rgb(156, 220, 254);&quot;&gt;value&lt;/span&gt;)&lt;/font&gt;&lt;/div&gt;&lt;div style=&quot;font-size: 14px;&quot;&gt;&lt;/div&gt;&lt;/div&gt;&lt;/div&gt;" style="rounded=1;whiteSpace=wrap;html=1;fillColor=#cdeb8b;strokeColor=#36393d;" vertex="1" parent="WIyWlLk6GJQsqaUBKTNV-1">
          <mxGeometry x="105" y="1420" width="190" height="110" as="geometry" />
        </mxCell>
        <mxCell id="Y2pXn3VhWh6g7W9xuSVb-29" style="edgeStyle=orthogonalEdgeStyle;curved=1;rounded=0;orthogonalLoop=1;jettySize=auto;html=1;exitX=1;exitY=0.5;exitDx=0;exitDy=0;" edge="1" parent="WIyWlLk6GJQsqaUBKTNV-1" source="Y2pXn3VhWh6g7W9xuSVb-27">
          <mxGeometry relative="1" as="geometry">
            <mxPoint x="580" y="1570" as="targetPoint" />
          </mxGeometry>
        </mxCell>
        <mxCell id="Y2pXn3VhWh6g7W9xuSVb-30" style="edgeStyle=orthogonalEdgeStyle;curved=1;rounded=0;orthogonalLoop=1;jettySize=auto;html=1;exitX=1;exitY=0.5;exitDx=0;exitDy=0;" edge="1" parent="WIyWlLk6GJQsqaUBKTNV-1" source="Y2pXn3VhWh6g7W9xuSVb-27">
          <mxGeometry relative="1" as="geometry">
            <mxPoint x="580" y="1620" as="targetPoint" />
          </mxGeometry>
        </mxCell>
        <mxCell id="Y2pXn3VhWh6g7W9xuSVb-31" style="edgeStyle=orthogonalEdgeStyle;curved=1;rounded=0;orthogonalLoop=1;jettySize=auto;html=1;exitX=1;exitY=0.5;exitDx=0;exitDy=0;" edge="1" parent="WIyWlLk6GJQsqaUBKTNV-1" source="Y2pXn3VhWh6g7W9xuSVb-27">
          <mxGeometry relative="1" as="geometry">
            <mxPoint x="580" y="1700" as="targetPoint" />
          </mxGeometry>
        </mxCell>
        <mxCell id="Y2pXn3VhWh6g7W9xuSVb-32" style="edgeStyle=orthogonalEdgeStyle;curved=1;rounded=0;orthogonalLoop=1;jettySize=auto;html=1;exitX=1;exitY=0.5;exitDx=0;exitDy=0;" edge="1" parent="WIyWlLk6GJQsqaUBKTNV-1" source="Y2pXn3VhWh6g7W9xuSVb-27">
          <mxGeometry relative="1" as="geometry">
            <mxPoint x="580" y="1750" as="targetPoint" />
          </mxGeometry>
        </mxCell>
        <mxCell id="Y2pXn3VhWh6g7W9xuSVb-27" value="fazer a chamada para a função OperatorFunc&lt;div&gt;&lt;br&gt;&lt;/div&gt;&lt;div&gt;&lt;div style=&quot;color: rgb(204, 204, 204); background-color: rgb(31, 31, 31); font-family: Consolas, &amp;quot;Courier New&amp;quot;, monospace; line-height: 19px; white-space: pre;&quot;&gt;&lt;div style=&quot;&quot;&gt;&lt;span style=&quot;font-size: 14px;&quot;&gt;&amp;nbsp;&lt;/span&gt;&lt;font&gt;&lt;span style=&quot;color: rgb(86, 156, 214);&quot;&gt;let&lt;/span&gt; &lt;span style=&quot;color: rgb(156, 220, 254);&quot;&gt;resultado&lt;/span&gt; &lt;span style=&quot;color: rgb(212, 212, 212);&quot;&gt;=&lt;/span&gt; &lt;span style=&quot;color: rgb(220, 220, 170);&quot;&gt;operatorFunc&lt;/span&gt;(&lt;span style=&quot;color: rgb(156, 220, 254);&quot;&gt;n1&lt;/span&gt;, &lt;span style=&quot;color: rgb(156, 220, 254);&quot;&gt;n2&lt;/span&gt;)&lt;/font&gt;&lt;/div&gt;&lt;div style=&quot;&quot;&gt;&lt;font&gt;&amp;nbsp; &lt;span style=&quot;color: rgb(79, 193, 255);&quot;&gt;display&lt;/span&gt;.&lt;span style=&quot;color: rgb(156, 220, 254);&quot;&gt;value&lt;/span&gt; &lt;span style=&quot;color: rgb(212, 212, 212);&quot;&gt;=&lt;/span&gt; &lt;span style=&quot;color: rgb(156, 220, 254);&quot;&gt;resultado&lt;/span&gt;&lt;/font&gt;&lt;/div&gt;&lt;/div&gt;&lt;/div&gt;" style="rounded=1;whiteSpace=wrap;html=1;fillColor=#ffcc99;strokeColor=#36393d;" vertex="1" parent="WIyWlLk6GJQsqaUBKTNV-1">
          <mxGeometry x="70" y="1570" width="260" height="200" as="geometry" />
        </mxCell>
        <mxCell id="Y2pXn3VhWh6g7W9xuSVb-39" style="edgeStyle=none;rounded=0;orthogonalLoop=1;jettySize=auto;html=1;exitX=1;exitY=0.5;exitDx=0;exitDy=0;" edge="1" parent="WIyWlLk6GJQsqaUBKTNV-1" source="Y2pXn3VhWh6g7W9xuSVb-33">
          <mxGeometry relative="1" as="geometry">
            <mxPoint x="880" y="1650" as="targetPoint" />
          </mxGeometry>
        </mxCell>
        <mxCell id="Y2pXn3VhWh6g7W9xuSVb-33" value="&lt;div style=&quot;color: rgb(204, 204, 204); background-color: rgb(31, 31, 31); font-family: Consolas, &amp;quot;Courier New&amp;quot;, monospace; line-height: 19px; white-space: pre;&quot;&gt;&lt;div style=&quot;&quot;&gt;&lt;font style=&quot;font-size: 9px;&quot;&gt;&lt;span style=&quot;color: rgb(86, 156, 214);&quot;&gt;function&lt;/span&gt; &lt;span style=&quot;color: rgb(220, 220, 170);&quot;&gt;add&lt;/span&gt;(&lt;span style=&quot;color: rgb(156, 220, 254);&quot;&gt;n1&lt;/span&gt;, &lt;span style=&quot;color: rgb(156, 220, 254);&quot;&gt;n2&lt;/span&gt;) {&lt;/font&gt;&lt;/div&gt;&lt;div style=&quot;&quot;&gt;&lt;font style=&quot;font-size: 9px;&quot;&gt;&amp;nbsp; &lt;span style=&quot;color: #c586c0;&quot;&gt;return&lt;/span&gt; &lt;span style=&quot;color: #9cdcfe;&quot;&gt;n1&lt;/span&gt; &lt;span style=&quot;color: #d4d4d4;&quot;&gt;+&lt;/span&gt; &lt;span style=&quot;color: #9cdcfe;&quot;&gt;n2&lt;/span&gt;&lt;/font&gt;&lt;/div&gt;&lt;div style=&quot;&quot;&gt;&lt;font style=&quot;font-size: 9px;&quot;&gt;}&lt;/font&gt;&lt;/div&gt;&lt;/div&gt;" style="rounded=1;whiteSpace=wrap;html=1;" vertex="1" parent="WIyWlLk6GJQsqaUBKTNV-1">
          <mxGeometry x="600" y="1520" width="140" height="60" as="geometry" />
        </mxCell>
        <mxCell id="Y2pXn3VhWh6g7W9xuSVb-40" style="edgeStyle=none;rounded=0;orthogonalLoop=1;jettySize=auto;html=1;exitX=1;exitY=0.5;exitDx=0;exitDy=0;" edge="1" parent="WIyWlLk6GJQsqaUBKTNV-1" source="Y2pXn3VhWh6g7W9xuSVb-34">
          <mxGeometry relative="1" as="geometry">
            <mxPoint x="880" y="1660" as="targetPoint" />
          </mxGeometry>
        </mxCell>
        <mxCell id="Y2pXn3VhWh6g7W9xuSVb-34" value="&lt;div style=&quot;color: rgb(204, 204, 204); background-color: rgb(31, 31, 31); font-family: Consolas, &amp;quot;Courier New&amp;quot;, monospace; line-height: 19px; white-space: pre;&quot;&gt;&lt;div style=&quot;&quot;&gt;&lt;div style=&quot;line-height: 19px;&quot;&gt;&lt;div style=&quot;&quot;&gt;&lt;font style=&quot;font-size: 8px;&quot;&gt;&lt;span style=&quot;color: rgb(86, 156, 214);&quot;&gt;function&lt;/span&gt; &lt;span style=&quot;color: rgb(220, 220, 170);&quot;&gt;subtract&lt;/span&gt;(&lt;span style=&quot;color: rgb(156, 220, 254);&quot;&gt;n1&lt;/span&gt;, &lt;span style=&quot;color: rgb(156, 220, 254);&quot;&gt;n2&lt;/span&gt;) {&lt;/font&gt;&lt;/div&gt;&lt;div style=&quot;&quot;&gt;&lt;font style=&quot;font-size: 8px;&quot;&gt;&amp;nbsp; &lt;span style=&quot;color: #c586c0;&quot;&gt;return&lt;/span&gt; &lt;span style=&quot;color: #9cdcfe;&quot;&gt;n1&lt;/span&gt; &lt;span style=&quot;color: #d4d4d4;&quot;&gt;-&lt;/span&gt; &lt;span style=&quot;color: #9cdcfe;&quot;&gt;n2&lt;/span&gt;&lt;/font&gt;&lt;/div&gt;&lt;div style=&quot;&quot;&gt;&lt;font style=&quot;font-size: 8px;&quot;&gt;}&lt;/font&gt;&lt;/div&gt;&lt;/div&gt;&lt;/div&gt;&lt;/div&gt;" style="rounded=1;whiteSpace=wrap;html=1;" vertex="1" parent="WIyWlLk6GJQsqaUBKTNV-1">
          <mxGeometry x="600" y="1590" width="140" height="60" as="geometry" />
        </mxCell>
        <mxCell id="Y2pXn3VhWh6g7W9xuSVb-41" style="edgeStyle=none;rounded=0;orthogonalLoop=1;jettySize=auto;html=1;exitX=1;exitY=0.5;exitDx=0;exitDy=0;" edge="1" parent="WIyWlLk6GJQsqaUBKTNV-1" source="Y2pXn3VhWh6g7W9xuSVb-35">
          <mxGeometry relative="1" as="geometry">
            <mxPoint x="880" y="1670" as="targetPoint" />
          </mxGeometry>
        </mxCell>
        <mxCell id="Y2pXn3VhWh6g7W9xuSVb-35" value="&lt;div style=&quot;color: rgb(204, 204, 204); background-color: rgb(31, 31, 31); font-family: Consolas, &amp;quot;Courier New&amp;quot;, monospace; line-height: 19px; white-space: pre;&quot;&gt;&lt;div style=&quot;&quot;&gt;&lt;div style=&quot;line-height: 19px;&quot;&gt;&lt;div style=&quot;&quot;&gt;&lt;font style=&quot;font-size: 8px;&quot;&gt;&lt;span style=&quot;color: rgb(86, 156, 214);&quot;&gt;function&lt;/span&gt; &lt;span style=&quot;color: rgb(220, 220, 170);&quot;&gt;multiply&lt;/span&gt;(&lt;span style=&quot;color: rgb(156, 220, 254);&quot;&gt;n1&lt;/span&gt;, &lt;span style=&quot;color: rgb(156, 220, 254);&quot;&gt;n2&lt;/span&gt;) {&lt;/font&gt;&lt;/div&gt;&lt;div style=&quot;&quot;&gt;&lt;font style=&quot;font-size: 8px;&quot;&gt;&amp;nbsp; &lt;span style=&quot;color: #c586c0;&quot;&gt;return&lt;/span&gt; &lt;span style=&quot;color: #9cdcfe;&quot;&gt;n1&lt;/span&gt; &lt;span style=&quot;color: #d4d4d4;&quot;&gt;*&lt;/span&gt; &lt;span style=&quot;color: #9cdcfe;&quot;&gt;n2&lt;/span&gt;&lt;/font&gt;&lt;/div&gt;&lt;div style=&quot;&quot;&gt;&lt;font style=&quot;font-size: 8px;&quot;&gt;}&lt;/font&gt;&lt;/div&gt;&lt;/div&gt;&lt;/div&gt;&lt;/div&gt;" style="rounded=1;whiteSpace=wrap;html=1;" vertex="1" parent="WIyWlLk6GJQsqaUBKTNV-1">
          <mxGeometry x="600" y="1660" width="140" height="60" as="geometry" />
        </mxCell>
        <mxCell id="Y2pXn3VhWh6g7W9xuSVb-42" style="edgeStyle=none;rounded=0;orthogonalLoop=1;jettySize=auto;html=1;exitX=1;exitY=0.5;exitDx=0;exitDy=0;" edge="1" parent="WIyWlLk6GJQsqaUBKTNV-1" source="Y2pXn3VhWh6g7W9xuSVb-36">
          <mxGeometry relative="1" as="geometry">
            <mxPoint x="880" y="1680" as="targetPoint" />
          </mxGeometry>
        </mxCell>
        <mxCell id="Y2pXn3VhWh6g7W9xuSVb-36" value="&lt;div style=&quot;color: rgb(204, 204, 204); background-color: rgb(31, 31, 31); font-family: Consolas, &amp;quot;Courier New&amp;quot;, monospace; line-height: 19px; white-space: pre;&quot;&gt;&lt;div style=&quot;&quot;&gt;&lt;div style=&quot;line-height: 19px;&quot;&gt;&lt;div style=&quot;&quot;&gt;&lt;font style=&quot;font-size: 9px;&quot;&gt;&lt;span style=&quot;color: rgb(86, 156, 214);&quot;&gt;function&lt;/span&gt; &lt;span style=&quot;color: rgb(220, 220, 170);&quot;&gt;divide&lt;/span&gt;(&lt;span style=&quot;color: rgb(156, 220, 254);&quot;&gt;n1&lt;/span&gt;, &lt;span style=&quot;color: rgb(156, 220, 254);&quot;&gt;n2&lt;/span&gt;) {&lt;/font&gt;&lt;/div&gt;&lt;div style=&quot;&quot;&gt;&lt;span style=&quot;font-size: 9px;&quot;&gt;&amp;nbsp; &lt;/span&gt;&lt;span style=&quot;font-size: 9px; color: rgb(197, 134, 192);&quot;&gt;return&lt;/span&gt;&lt;span style=&quot;font-size: 9px;&quot;&gt; &lt;/span&gt;&lt;span style=&quot;font-size: 9px; color: rgb(156, 220, 254);&quot;&gt;n1&lt;/span&gt;&lt;span style=&quot;font-size: 9px;&quot;&gt; &lt;/span&gt;&lt;span style=&quot;font-size: 9px; color: rgb(212, 212, 212);&quot;&gt;/&lt;/span&gt;&lt;span style=&quot;font-size: 9px;&quot;&gt; &lt;/span&gt;&lt;span style=&quot;font-size: 9px; color: rgb(156, 220, 254);&quot;&gt;n2&lt;/span&gt;&lt;/div&gt;&lt;div style=&quot;&quot;&gt;&lt;font style=&quot;font-size: 9px;&quot;&gt;}&lt;/font&gt;&lt;/div&gt;&lt;/div&gt;&lt;/div&gt;&lt;/div&gt;" style="rounded=1;whiteSpace=wrap;html=1;" vertex="1" parent="WIyWlLk6GJQsqaUBKTNV-1">
          <mxGeometry x="600" y="1730" width="140" height="60" as="geometry" />
        </mxCell>
        <mxCell id="Y2pXn3VhWh6g7W9xuSVb-44" style="edgeStyle=orthogonalEdgeStyle;curved=1;rounded=0;orthogonalLoop=1;jettySize=auto;html=1;" edge="1" parent="WIyWlLk6GJQsqaUBKTNV-1" source="Y2pXn3VhWh6g7W9xuSVb-43">
          <mxGeometry relative="1" as="geometry">
            <mxPoint x="170" y="1910" as="targetPoint" />
            <Array as="points">
              <mxPoint x="1015" y="1850" />
              <mxPoint x="171" y="1850" />
            </Array>
          </mxGeometry>
        </mxCell>
        <mxCell id="Y2pXn3VhWh6g7W9xuSVb-43" value="&lt;div style=&quot;font-family: Consolas, &amp;quot;Courier New&amp;quot;, monospace; white-space: pre;&quot;&gt;&lt;div style=&quot;color: rgb(204, 204, 204); background-color: rgb(31, 31, 31); line-height: 19px;&quot;&gt;&lt;div style=&quot;&quot;&gt;&lt;font style=&quot;font-size: 10px;&quot;&gt;&amp;nbsp; &lt;span style=&quot;color: rgb(86, 156, 214);&quot;&gt;let&lt;/span&gt; &lt;span style=&quot;color: rgb(156, 220, 254);&quot;&gt;resultado&lt;/span&gt; &lt;span style=&quot;color: rgb(212, 212, 212);&quot;&gt;=&lt;/span&gt; &lt;span style=&quot;color: rgb(220, 220, 170);&quot;&gt;operatorFunc&lt;/span&gt;(&lt;span style=&quot;color: rgb(156, 220, 254);&quot;&gt;n1&lt;/span&gt;, &lt;span style=&quot;color: rgb(156, 220, 254);&quot;&gt;n2&lt;/span&gt;)&lt;/font&gt;&lt;/div&gt;&lt;div style=&quot;&quot;&gt;&lt;font style=&quot;font-size: 10px;&quot;&gt;&amp;nbsp; &lt;span style=&quot;color: rgb(79, 193, 255);&quot;&gt;display&lt;/span&gt;.&lt;span style=&quot;color: rgb(156, 220, 254);&quot;&gt;value&lt;/span&gt; &lt;span style=&quot;color: rgb(212, 212, 212);&quot;&gt;=&lt;/span&gt; &lt;span style=&quot;color: rgb(156, 220, 254);&quot;&gt;resultado&lt;/span&gt;&lt;/font&gt;&lt;/div&gt;&lt;/div&gt;&lt;/div&gt;" style="rounded=1;whiteSpace=wrap;html=1;fillColor=#b1ddf0;strokeColor=#10739e;" vertex="1" parent="WIyWlLk6GJQsqaUBKTNV-1">
          <mxGeometry x="890" y="1620" width="250" height="100" as="geometry" />
        </mxCell>
        <mxCell id="Y2pXn3VhWh6g7W9xuSVb-45" value="&lt;div style=&quot;font-family: Consolas, &amp;quot;Courier New&amp;quot;, monospace; white-space: pre;&quot;&gt;&lt;div style=&quot;color: rgb(204, 204, 204); background-color: rgb(31, 31, 31); line-height: 19px;&quot;&gt;&lt;div style=&quot;&quot;&gt;&lt;div style=&quot;line-height: 19px;&quot;&gt;&lt;div style=&quot;&quot;&gt;&lt;font style=&quot;font-size: 10px;&quot;&gt;&amp;nbsp; &lt;span style=&quot;color: rgb(106, 153, 85);&quot;&gt;// prep next calculation  &lt;/span&gt;&lt;/font&gt;&lt;/div&gt;&lt;div style=&quot;&quot;&gt;&lt;font style=&quot;font-size: 10px;&quot;&gt;&amp;nbsp; &lt;span style=&quot;color: #9cdcfe;&quot;&gt;n1&lt;/span&gt; &lt;span style=&quot;color: #d4d4d4;&quot;&gt;=&lt;/span&gt; &lt;span style=&quot;color: #9cdcfe;&quot;&gt;resultado&lt;/span&gt;&lt;/font&gt;&lt;/div&gt;&lt;div style=&quot;&quot;&gt;&lt;font style=&quot;font-size: 10px;&quot;&gt;&amp;nbsp; &lt;span style=&quot;color: #9cdcfe;&quot;&gt;n2&lt;/span&gt; &lt;span style=&quot;color: #d4d4d4;&quot;&gt;=&lt;/span&gt; &lt;span style=&quot;color: #ce9178;&quot;&gt;&#39;&#39;&lt;/span&gt;&lt;/font&gt;&lt;/div&gt;&lt;div style=&quot;&quot;&gt;&lt;font style=&quot;font-size: 10px;&quot;&gt;&amp;nbsp; &lt;span style=&quot;color: #9cdcfe;&quot;&gt;operatorSymb&lt;/span&gt; &lt;span style=&quot;color: #d4d4d4;&quot;&gt;=&lt;/span&gt; &lt;span style=&quot;color: #569cd6;&quot;&gt;null&lt;/span&gt;&lt;/font&gt;&lt;/div&gt;&lt;div style=&quot;&quot;&gt;&lt;font style=&quot;font-size: 10px;&quot;&gt;&amp;nbsp; &lt;span style=&quot;color: #9cdcfe;&quot;&gt;operatorFunc&lt;/span&gt; &lt;span style=&quot;color: #d4d4d4;&quot;&gt;=&lt;/span&gt; &lt;span style=&quot;color: #569cd6;&quot;&gt;null&lt;/span&gt;&lt;/font&gt;&lt;/div&gt;&lt;div style=&quot;&quot;&gt;&lt;font style=&quot;font-size: 10px;&quot;&gt;&amp;nbsp; &lt;span style=&quot;color: rgb(156, 220, 254);&quot;&gt;n1exists&lt;/span&gt; &lt;span style=&quot;color: rgb(212, 212, 212);&quot;&gt;=&lt;/span&gt; &lt;span style=&quot;color: rgb(86, 156, 214);&quot;&gt;true&lt;/span&gt;&lt;/font&gt;&lt;/div&gt;&lt;/div&gt;&lt;/div&gt;&lt;/div&gt;&lt;/div&gt;" style="rounded=1;whiteSpace=wrap;html=1;fillColor=#b1ddf0;strokeColor=#10739e;" vertex="1" parent="WIyWlLk6GJQsqaUBKTNV-1">
          <mxGeometry x="40" y="1920" width="300" height="140" as="geometry" />
        </mxCell>
        <mxCell id="Y2pXn3VhWh6g7W9xuSVb-46" value="&lt;h1 style=&quot;margin-top: 0px;&quot;&gt;&lt;ul&gt;&lt;li&gt;&lt;span style=&quot;background-color: transparent; color: light-dark(rgb(0, 0, 0), rgb(255, 255, 255)); font-size: 12px; font-weight: normal;&quot;&gt;n1&amp;nbsp; tem de passar a ser o resultado da operação acumulado (da mesma forma que o acc em reduce)&lt;/span&gt;&lt;/li&gt;&lt;li&gt;&lt;span style=&quot;background-color: transparent; color: light-dark(rgb(0, 0, 0), rgb(255, 255, 255)); font-size: 12px; font-weight: normal;&quot;&gt;n2 volta a nulo&lt;/span&gt;&lt;/li&gt;&lt;/ul&gt;&lt;/h1&gt;&lt;div&gt;&lt;span style=&quot;background-color: transparent; color: light-dark(rgb(0, 0, 0), rgb(255, 255, 255)); font-size: 12px; font-weight: normal;&quot;&gt;&lt;br&gt;&lt;/span&gt;&lt;/div&gt;" style="text;html=1;whiteSpace=wrap;overflow=hidden;rounded=0;fillColor=#eeeeee;strokeColor=#36393d;" vertex="1" parent="WIyWlLk6GJQsqaUBKTNV-1">
          <mxGeometry x="370" y="1915" width="405" height="150" as="geometry" />
        </mxCell>
      </root>
    </mxGraphModel>
  </diagram>
</mxfile>
